<?xml version="1.0" encoding="UTF-8"?>
<!DOCTYPE svg PUBLIC "-//W3C//DTD SVG 1.1//EN" "http://www.w3.org/Graphics/SVG/1.1/DTD/svg11.dtd">
<!-- Creator: CorelDRAW 2020 (64 Bit) -->
<svg xmlns="http://www.w3.org/2000/svg" xml:space="preserve" width="50mm" height="" version="1.1" style="shape-rendering:geometricPrecision; text-rendering:geometricPrecision; image-rendering:optimizeQuality; fill-rule:evenodd; clip-rule:evenodd"
viewBox="0 0 25000 10000"
 xmlns:xlink="http://www.w3.org/1999/xlink"
 xmlns:xodm="http://www.corel.com/coreldraw/odm/2003">
 <defs>
  <style type="text/css">
   <![CDATA[
    .fil3 {fill:#fff}
    .fil2 {fill:#fff}
    .fil0 {fill:#fff;fill-rule:nonzero}
    .fil1 {fill:#fff;fill-rule:nonzero}
   ]]>
  </style>
 </defs>
 <g id="Camada_x0020_1">
  <metadata id="CorelCorpID_0Corel-Layer"/>
  <path class="fil0" d="M7150.05 5044.8l178.59 0c153.79,0 285.44,-54.57 394.96,-164.48 108.75,-108.75 162.93,-239.63 162.93,-393.42 0,-154.17 -54.18,-285.81 -162.93,-394.57 -109.52,-109.51 -241.17,-164.46 -394.96,-164.46l-178.59 0 0 1116.93zm-241.54 241.54l0 -1599.64 420.13 0c220.94,0 409.46,78.22 565.91,234.68 155.69,156.45 233.53,344.96 233.53,565.52 0,219.8 -77.84,408.31 -233.53,564.76 -156.45,156.46 -344.97,234.68 -565.91,234.68l-420.13 0zm2153.33 -1372.97c-157.98,0 -293.06,56.1 -404.86,167.9 -111.81,111.8 -167.53,246.51 -167.53,404.49 0,157.98 55.72,293.06 167.53,404.87 111.8,111.8 246.88,167.52 404.86,167.52 157.98,0 292.69,-55.72 404.49,-167.52 111.81,-111.81 167.9,-246.89 167.9,-404.87 0,-157.98 -56.09,-292.69 -167.9,-404.49 -111.8,-111.8 -246.51,-167.9 -404.49,-167.9zm0 1388.61c-225.14,0 -417.46,-79.75 -576.97,-239.25 -159.5,-159.5 -239.25,-351.83 -239.25,-576.97 0,-225.15 79.75,-417.09 239.25,-576.58 159.51,-159.51 351.83,-239.27 576.97,-239.27 224.76,0 417.09,79.76 576.59,239.27 159.5,159.49 239.26,351.43 239.26,576.58 0,225.14 -79.76,417.47 -239.26,576.97 -159.5,159.5 -351.83,239.25 -576.59,239.25zm1585.15 -1.14c-156.46,0 -290.78,-55.32 -402.58,-166.37 -111.05,-111.05 -166.37,-245.37 -166.37,-402.58l0 -1046.34 243.45 0 0 1046.34c0,90.06 31.67,166.76 95.4,230.1 63.73,64.1 140.81,96.16 230.1,96.16 90.06,0 167.14,-32.06 230.49,-96.16 64.1,-63.34 95.77,-140.04 95.77,-230.1l0 -1046.34 243.85 0 0 1046.34c0,157.21 -55.73,291.53 -167.53,402.58 -111.05,111.05 -245.37,166.37 -402.58,166.37zm1592.01 1.14c-225.13,0 -417.46,-79.75 -576.97,-239.25 -159.51,-159.5 -239.26,-351.83 -239.26,-576.97 0,-225.15 79.75,-417.09 239.26,-576.58 159.51,-159.51 351.84,-239.27 576.97,-239.27 111.05,0 216.75,20.98 317.49,63.73l-94.25 224.75c-71.36,-30.91 -145.78,-46.17 -223.24,-46.17 -158.36,0 -293.06,56.48 -404.87,169.05 -111.81,111.8 -167.52,246.51 -167.52,404.49 0,157.98 55.71,293.06 167.52,404.87 111.81,111.8 246.51,167.52 404.87,167.52 51.13,0 101.12,-6.1 149.59,-18.7l0 -436.16 -259.49 0 0 -243.84 503.32 0 0 846.38 -74.03 31.28c-101.87,43.13 -208.34,64.87 -319.39,64.87zm581.17 -1615.28l0 1599.64 815.85 0 0 -242.68 -573.53 0 0 -1356.96 -242.32 0zm1938.11 0l-1011.6 1599.64 287.34 0 235.82 -373.58 543.4 0 0 373.58 243.45 0 0 -1599.64 -298.41 0zm54.96 367.47l0 616.27 -390.38 0 390.38 -616.27zm972.69 1247.81c-10.31,0 -20.61,-0.37 -30.16,-1.14 -106.08,-4.58 -203.38,-32.82 -293.06,-85.09 -101.13,-58.76 -170.19,-137.76 -206.82,-236.98l228.19 -83.56c18.7,48.84 56.86,88.91 115.24,119.44 51.14,25.95 107.24,40.82 167.53,43.5 93.11,3.81 170.18,-18.7 231.62,-67.92 51.13,-41.98 78.6,-89.67 81.29,-143.1 4.58,-102.27 -102.28,-183.94 -320.55,-244.98 -342.29,-96.17 -507.9,-259.11 -497.6,-488.44 6.49,-161.04 75.56,-281.62 206.83,-361.37 99.97,-61.06 219.79,-88.15 359.84,-81.28 170.19,7.24 306.41,66.39 409.07,177.44l-177.44 165.6c-58.38,-62.57 -139.28,-96.15 -242.69,-100.73 -72.89,-2.68 -135.48,6.48 -186.61,28.24 -80.51,33.96 -122.87,95.4 -126.3,183.16 -4.58,100.74 102.26,181.64 320.53,242.7 196.91,54.95 336.2,136.23 418.23,243.45 56.86,74.79 83.2,157.21 79.37,247.27 -5.72,126.69 -63.34,233.93 -172.09,322.07 -101.5,81.28 -222.85,121.72 -364.42,121.72z"/>
  <path class="fil1" d="M17320.69 5044.8l178.59 0c153.78,0 285.43,-54.57 394.96,-164.48 108.75,-108.75 162.93,-239.63 162.93,-393.42 0,-154.17 -54.18,-285.81 -162.93,-394.57 -109.53,-109.51 -241.18,-164.46 -394.96,-164.46l-178.59 0 0 1116.93zm-241.55 241.54l0 -1599.64 420.14 0c220.94,0 409.45,78.22 565.91,234.68 155.68,156.45 233.52,344.96 233.52,565.52 0,219.8 -77.84,408.31 -233.52,564.76 -156.46,156.46 -344.97,234.68 -565.91,234.68l-420.14 0zm1652.31 -916.59l0 -440.74 347.62 0c60.29,0 112.19,21.75 155.32,64.87 42.74,43.51 63.73,95.4 63.73,156.46 0,60.67 -20.99,111.8 -63.73,154.54 -43.13,43.12 -95.03,64.87 -155.32,64.87l-347.62 0zm528.88 205.68c83.58,-35.87 150.73,-91.96 202.25,-167.89 53.04,-77.48 79.38,-163.34 79.38,-257.2 0,-128.22 -45.42,-237.35 -136.24,-327.41 -90.44,-90.81 -199.19,-136.23 -326.65,-136.23l-590.32 0 0 1599.64 242.7 0 0 -674.27 273.98 0 349.92 674.27 273.98 0 -369 -710.91zm1237.51 -662.06c-157.98,0 -293.06,56.1 -404.87,167.9 -111.8,111.8 -167.52,246.51 -167.52,404.49 0,157.98 55.72,293.06 167.52,404.87 111.81,111.8 246.89,167.52 404.87,167.52 157.98,0 292.69,-55.72 404.49,-167.52 111.81,-111.81 167.9,-246.89 167.9,-404.87 0,-157.98 -56.09,-292.69 -167.9,-404.49 -111.8,-111.8 -246.51,-167.9 -404.49,-167.9zm0 1388.61c-225.14,0 -417.47,-79.75 -576.97,-239.25 -159.5,-159.5 -239.25,-351.83 -239.25,-576.97 0,-225.15 79.75,-417.09 239.25,-576.58 159.5,-159.51 351.83,-239.27 576.97,-239.27 224.76,0 417.09,79.76 576.59,239.27 159.5,159.49 239.26,351.43 239.26,576.58 0,225.14 -79.76,417.47 -239.26,576.97 -159.5,159.5 -351.83,239.25 -576.59,239.25zm891.03 -1615.28l0 242.31 478.14 0 -602.54 1357.33 860.88 0 0 -242.68 -487.3 0 602.55 -1356.96 -851.73 0zm1271.09 1358.1l178.59 0c153.78,0 285.44,-54.57 394.96,-164.48 108.75,-108.75 162.93,-239.63 162.93,-393.42 0,-154.17 -54.18,-285.81 -162.93,-394.57 -109.52,-109.51 -241.18,-164.46 -394.96,-164.46l-178.59 0 0 1116.93zm-241.55 241.54l0 -1599.64 420.14 0c220.94,0 409.45,78.22 565.91,234.68 155.68,156.45 233.53,344.96 233.53,565.52 0,219.8 -77.85,408.31 -233.53,564.76 -156.46,156.46 -344.97,234.68 -565.91,234.68l-420.14 0zm2101.82 -1599.64l-1011.6 1599.64 287.34 0 235.82 -373.58 543.39 0 0 373.58 243.46 0 0 -1599.64 -298.41 0zm54.95 367.47l0 616.27 -390.37 0 390.37 -616.27z"/>
  <path class="fil1" d="M6919.75 6339.52l0 -472.34 144.48 0c72.12,0 130.08,21.77 173.82,65.31 43.76,43.53 65.64,100.49 65.64,170.86 0,70.8 -21.88,127.87 -65.64,171.19 -43.74,43.32 -101.7,64.98 -173.82,64.98l-144.48 0zm60.71 -414.28l0 356.23 83.77 0c54.98,0 98.29,-15.73 129.96,-47.17 31.66,-31.44 47.5,-75.1 47.5,-130.95 0,-55.42 -15.84,-98.96 -47.5,-130.62 -31.67,-31.67 -74.98,-47.49 -129.96,-47.49l-83.77 0zm1396.55 -58.06l0 58.06 -215.06 0 0 149.75 193.95 0 0 56.73 -193.95 0 0 149.75 215.06 0 0 58.05 -275.76 0 0 -472.34 275.76 0zm1099.01 346.34c0,41.34 -15.17,74.53 -45.51,99.61 -30.79,24.63 -68.18,36.94 -112.15,36.94 -39.14,0 -73.66,-11.43 -103.57,-34.31 -29.9,-22.86 -50.57,-54.09 -62.02,-93.66l58.06 -23.76c3.96,14.08 9.46,26.84 16.49,38.27 7.04,11.43 15.28,21.21 24.74,29.35 9.46,8.14 19.9,14.51 31.34,19.13 11.44,4.62 23.53,6.93 36.28,6.93 27.71,0 50.36,-7.15 67.95,-21.44 17.59,-14.3 26.39,-33.31 26.39,-57.06 0,-19.8 -7.26,-36.73 -21.77,-50.8 -13.64,-13.63 -39.14,-26.83 -76.53,-39.58 -37.83,-13.63 -61.35,-22.87 -70.58,-27.71 -50.15,-25.5 -75.21,-63.11 -75.21,-112.81 0,-34.74 13.86,-64.42 41.57,-89.05 28.14,-24.63 62.66,-36.95 103.56,-36.95 36.07,0 67.3,9.24 93.68,27.71 26.39,18.03 43.98,40.68 52.77,67.95l-56.73 23.74c-5.28,-17.59 -15.72,-32.21 -31.33,-43.86 -15.62,-11.66 -34.64,-17.48 -57.07,-17.48 -23.75,0 -43.76,6.59 -60.03,19.79 -16.27,12.32 -24.41,28.37 -24.41,48.15 0,16.28 6.38,30.35 19.13,42.22 14.08,11.88 44.64,25.96 91.69,42.22 47.95,16.28 82.14,36.18 102.6,59.71 20.44,23.52 30.66,52.44 30.66,86.75zm1074.63 -346.34l0 58.06 -215.06 0 0 149.75 193.95 0 0 56.73 -193.95 0 0 149.75 215.06 0 0 58.05 -275.76 0 0 -472.34 275.76 0zm868.14 472.34l-60.71 0 0 -472.34 73.89 0 229.57 367.45 2.64 0 -2.64 -91.04 0 -276.41 60.7 0 0 472.34 -63.33 0 -240.12 -385.26 -2.65 0 2.65 91.04 0 294.22zm1304.18 0l-63.33 0 -166.24 -472.34 67.29 0 129.3 383.27 2.64 0 134.58 -383.27 67.28 0 -171.52 472.34zm1395.24 -236.17c0,69.93 -23.32,128.41 -69.93,175.48 -47.05,47.49 -104.66,71.24 -172.84,71.24 -68.6,0 -126.22,-23.75 -172.84,-71.24 -46.61,-47.07 -69.93,-105.55 -69.93,-175.48 0,-69.93 23.32,-128.42 69.93,-175.48 46.62,-47.49 104.24,-71.25 172.84,-71.25 68.62,0 126.22,23.97 172.84,71.91 46.61,47.05 69.93,105.33 69.93,174.82zm-423.52 0c0,54.54 17.15,99.61 51.46,135.24 34.73,35.62 77.84,53.43 129.29,53.43 51.46,0 94.33,-17.81 128.64,-53.43 34.75,-35.19 52.11,-80.26 52.11,-135.24 0,-54.98 -17.36,-100.06 -52.11,-135.24 -34.31,-35.62 -77.18,-53.43 -128.64,-53.43 -51.45,0 -94.56,17.81 -129.29,53.43 -34.31,35.62 -51.46,80.71 -51.46,135.24zm1486.26 236.17l-265.2 0 0 -472.34 60.7 0 0 414.29 204.5 0 0 58.05zm939.38 0l-63.33 0 -166.24 -472.34 67.29 0 129.3 383.27 2.64 0 134.58 -383.27 67.28 0 -171.52 472.34zm1228.33 -472.34l0 58.06 -215.05 0 0 149.75 193.94 0 0 56.73 -193.94 0 0 149.75 215.05 0 0 58.05 -275.76 0 0 -472.34 275.76 0zm807.43 472.34l0 -472.34 144.48 0c72.12,0 130.08,21.77 173.82,65.31 43.76,43.53 65.64,100.49 65.64,170.86 0,70.8 -21.88,127.87 -65.64,171.19 -43.74,43.32 -101.7,64.98 -173.82,64.98l-144.48 0zm60.71 -414.28l0 356.23 83.77 0c54.98,0 98.29,-15.73 129.96,-47.17 31.66,-31.44 47.5,-75.1 47.5,-130.95 0,-55.42 -15.84,-98.96 -47.5,-130.62 -31.67,-31.67 -74.98,-47.49 -129.96,-47.49l-83.77 0zm1583.23 178.11c0,69.93 -23.31,128.41 -69.93,175.48 -47.05,47.49 -104.66,71.24 -172.83,71.24 -68.6,0 -126.23,-23.75 -172.84,-71.24 -46.62,-47.07 -69.93,-105.55 -69.93,-175.48 0,-69.93 23.31,-128.42 69.93,-175.48 46.61,-47.49 104.24,-71.25 172.84,-71.25 68.61,0 126.22,23.97 172.83,71.91 46.62,47.05 69.93,105.33 69.93,174.82zm-423.51 0c0,54.54 17.15,99.61 51.46,135.24 34.73,35.62 77.84,53.43 129.29,53.43 51.46,0 94.33,-17.81 128.64,-53.43 34.74,-35.19 52.11,-80.26 52.11,-135.24 0,-54.98 -17.37,-100.06 -52.11,-135.24 -34.31,-35.62 -77.18,-53.43 -128.64,-53.43 -51.45,0 -94.56,17.81 -129.29,53.43 -34.31,35.62 -51.46,80.71 -51.46,135.24zm1281.76 -178.11l0 166.24 97.62 0c24.63,0 45.53,-8.03 62.68,-24.09 17.14,-16.05 25.72,-35.95 25.72,-59.7 0,-21.99 -8.02,-41.23 -24.07,-57.72 -16.05,-16.49 -36.18,-24.73 -60.37,-24.73l-101.58 0zm0 414.28l-60.71 0 0 -472.34 160.97 0c40.91,0 75.76,13.53 104.56,40.57 28.81,27.05 43.21,60.36 43.21,99.94 0,32.55 -10.66,61.47 -31.99,86.75 -21.33,25.29 -48.26,41.45 -80.81,48.49l-1.32 1.97 132.59 191.97 0 2.65 -71.91 0 -127.31 -191.31 -67.28 0 0 191.31zm1942.09 -472.34l63.33 0 -125.99 472.34 -62.01 0 -101.59 -311.37 -2.64 0 -101.6 311.37 -62 0 -131.28 -472.34 63.33 0 99.61 371.41 2.63 0 102.26 -308.08 56.73 0 102.25 308.08 2.64 0 94.33 -371.41zm1122.79 0l0 58.06 -215.06 0 0 149.75 193.95 0 0 56.73 -193.95 0 0 149.75 215.06 0 0 58.05 -275.76 0 0 -472.34 275.76 0zm807.43 472.34l0 -472.34 170.86 0c37.38,0 69.49,12.32 96.32,36.95 26.82,24.18 40.24,54.75 40.24,91.69 0,46.61 -21.33,79.38 -63.99,98.29l0 2.64c24.19,7.91 43.53,21.67 58.04,41.24 14.53,19.57 21.78,41.88 21.78,66.95 0,38.7 -14.07,70.81 -42.22,96.31 -27.27,25.51 -60.92,38.27 -100.93,38.27l-180.1 0zm60.7 -414.28l0 144.46 110.16 0c21.56,0 39.59,-7.26 54.1,-21.77 14.51,-14.95 21.76,-31.88 21.76,-50.8 0,-18.47 -7.04,-35.18 -21.11,-50.13 -14.07,-14.51 -31.44,-21.76 -52.11,-21.76l-112.8 0zm0 201.2l0 155.03 122.04 0c21.99,0 40.68,-7.7 56.07,-23.1 14.95,-15.39 22.44,-33.65 22.44,-54.76 0,-20.65 -7.7,-38.68 -23.11,-54.09 -15.38,-15.38 -34.73,-23.08 -58.04,-23.08l-119.4 0z"/>
  <path class="fil2" d="M1187.11 2575.46c1034.68,22.63 1525.58,-85.74 2294.41,438.42 466.77,318.17 921.14,892 1027.6,1685.57 147.75,1102 -524.91,2162.61 -1463.82,2544.5 -382.48,155.62 -726.94,188.68 -1182.32,194.3l1.41 -3450.95 -681.19 -9.58 0.8 4140.36c1359.92,-41.99 1893.26,68.93 2852.33,-688.96 1587.79,-1254.77 1536.01,-3639.78 23.23,-4824.96 -989.52,-775.21 -1457.04,-664.18 -2875.46,-707.98l3.01 679.28z"/>
  <path class="fil3" d="M145.11 7062.99l660.42 14.04 18.51 -3449.38c310.34,-30.86 1322.44,-33.87 1590.85,28.94 454.87,106.36 764.66,402.36 939.4,760.01 303.62,621.33 45.55,1422.73 -515.78,1769.44 -203.94,125.97 -395.83,139.77 -613.11,225.46l3.46 648.93c1275.33,32.96 2384.46,-1532.35 1759.01,-2894.83 -246.13,-536.15 -718.66,-995.54 -1384.4,-1163.81 -327.1,-82.67 -2103.32,-102.79 -2448.93,-50.52l-9.43 4111.72z"/>
 </g>
</svg>
